<svg viewBox="0 0 900 580" xmlns="http://www.w3.org/2000/svg" font-family="'Segoe UI', Arial, sans-serif">

  <rect width="900" height="580" fill="#0f0f14"/>

  <text x="450" y="44" text-anchor="middle" fill="#555" font-size="13" letter-spacing="3">DASHZEN — LOGO OPTIONS (TEAL PALETTE)</text>

  <defs>
    <linearGradient id="tg" x1="0%" y1="0%" x2="100%" y2="0%">
      <stop offset="0%" stop-color="#2ba98b"/>
      <stop offset="100%" stop-color="#1d7a63"/>
    </linearGradient>
    <linearGradient id="tg2" x1="0%" y1="0%" x2="100%" y2="100%">
      <stop offset="0%" stop-color="#2fbc9a"/>
      <stop offset="100%" stop-color="#1d7a63"/>
    </linearGradient>
  </defs>

  <!-- ── DARK BG VERSION ── -->
  <rect x="60" y="70" width="380" height="160" rx="16" fill="#1a1a24" stroke="#2a2a3a" stroke-width="1"/>
  <text x="250" y="96" text-anchor="middle" fill="#444" font-size="10" letter-spacing="2">DARK BACKGROUND</text>

  <g transform="translate(118, 158)">
    <rect x="-28" y="-28" width="56" height="56" rx="13" fill="url(#tg2)"/>
    <polyline points="-14,10 -5,-6 4,2 16,-16" fill="none" stroke="white" stroke-width="3" stroke-linecap="round" stroke-linejoin="round"/>
    <circle cx="16" cy="-16" r="3.5" fill="white" opacity="0.9"/>
  </g>

  <text x="165" y="148" font-size="38" font-weight="800" letter-spacing="-1.5">
    <tspan fill="white">Dash</tspan><tspan fill="#2fbc9a">Zen</tspan>
  </text>
  <text x="166" y="170" font-size="10.5" fill="#666" letter-spacing="2.5">AI DASHBOARD PLATFORM</text>

  <!-- ── LIGHT BG VERSION ── -->
  <rect x="460" y="70" width="380" height="160" rx="16" fill="#ffffff" stroke="#e5e5e5" stroke-width="1"/>
  <text x="650" y="96" text-anchor="middle" fill="#aaa" font-size="10" letter-spacing="2">LIGHT BACKGROUND</text>

  <g transform="translate(518, 158)">
    <rect x="-28" y="-28" width="56" height="56" rx="13" fill="url(#tg2)"/>
    <polyline points="-14,10 -5,-6 4,2 16,-16" fill="none" stroke="white" stroke-width="3" stroke-linecap="round" stroke-linejoin="round"/>
    <circle cx="16" cy="-16" r="3.5" fill="white" opacity="0.9"/>
  </g>

  <text x="565" y="148" font-size="38" font-weight="800" letter-spacing="-1.5">
    <tspan fill="#111111">Dash</tspan><tspan fill="#1d9c7e">Zen</tspan>
  </text>
  <text x="566" y="170" font-size="10.5" fill="#999" letter-spacing="2.5">AI DASHBOARD PLATFORM</text>

  <!-- ── ICON ONLY — various sizes ── -->
  <text x="450" y="278" text-anchor="middle" fill="#444" font-size="10" letter-spacing="2">ICON — SCALABILITY TEST</text>

  <!-- 64px -->
  <g transform="translate(180, 330)">
    <rect x="-32" y="-32" width="64" height="64" rx="15" fill="url(#tg2)"/>
    <polyline points="-16,12 -6,-8 5,2 18,-18" fill="none" stroke="white" stroke-width="3.5" stroke-linecap="round" stroke-linejoin="round"/>
    <circle cx="18" cy="-18" r="4" fill="white" opacity="0.9"/>
  </g>
  <text x="180" y="382" text-anchor="middle" fill="#555" font-size="10">64px</text>

  <!-- 40px -->
  <g transform="translate(290, 330)">
    <rect x="-20" y="-20" width="40" height="40" rx="10" fill="url(#tg2)"/>
    <polyline points="-10,8 -3,-5 4,1 11,-11" fill="none" stroke="white" stroke-width="2.5" stroke-linecap="round" stroke-linejoin="round"/>
    <circle cx="11" cy="-11" r="2.5" fill="white" opacity="0.9"/>
  </g>
  <text x="290" y="382" text-anchor="middle" fill="#555" font-size="10">40px</text>

  <!-- 24px -->
  <g transform="translate(380, 330)">
    <rect x="-12" y="-12" width="24" height="24" rx="6" fill="url(#tg2)"/>
    <polyline points="-6,4 -2,-3 2,0 7,-7" fill="none" stroke="white" stroke-width="2" stroke-linecap="round" stroke-linejoin="round"/>
  </g>
  <text x="380" y="382" text-anchor="middle" fill="#555" font-size="10">24px</text>

  <!-- 16px -->
  <g transform="translate(450, 330)">
    <rect x="-8" y="-8" width="16" height="16" rx="4" fill="#1d9c7e"/>
    <polyline points="-4,3 -1,-2 2,0 5,-5" fill="none" stroke="white" stroke-width="1.5" stroke-linecap="round" stroke-linejoin="round"/>
  </g>
  <text x="450" y="382" text-anchor="middle" fill="#555" font-size="10">16px</text>

  <!-- ── WORDMARK ONLY — horizontal ── -->
  <text x="620" y="310" text-anchor="middle" fill="#444" font-size="10" letter-spacing="2">WORDMARK ONLY</text>
  <text x="580" y="350" font-size="42" font-weight="900" letter-spacing="-2">
    <tspan fill="white">Dash</tspan><tspan fill="#2fbc9a">Zen</tspan>
  </text>
  <text x="580" y="372" font-size="11" fill="#555" letter-spacing="3">YOUR DATA. FINALLY CLEAR.</text>

  <!-- ── COLOR PALETTE ── -->
  <text x="450" y="420" text-anchor="middle" fill="#444" font-size="10" letter-spacing="2">COLOR PALETTE</text>

  <rect x="195" y="432" width="60" height="26" rx="7" fill="#2fbc9a"/>
  <text x="225" y="474" text-anchor="middle" fill="#666" font-size="9">#2FBC9A</text>
  <text x="225" y="485" text-anchor="middle" fill="#555" font-size="8">Primary</text>

  <rect x="275" y="432" width="60" height="26" rx="7" fill="#1d9c7e"/>
  <text x="305" y="474" text-anchor="middle" fill="#666" font-size="9">#1D9C7E</text>
  <text x="305" y="485" text-anchor="middle" fill="#555" font-size="8">Dark Teal</text>

  <rect x="355" y="432" width="60" height="26" rx="7" fill="#2ba98b"/>
  <text x="385" y="474" text-anchor="middle" fill="#666" font-size="9">#2BA98B</text>
  <text x="385" y="485" text-anchor="middle" fill="#555" font-size="8">Mid</text>

  <rect x="435" y="432" width="60" height="26" rx="7" fill="#111111"/>
  <text x="465" y="474" text-anchor="middle" fill="#666" font-size="9">#111111</text>
  <text x="465" y="485" text-anchor="middle" fill="#555" font-size="8">Text</text>

  <rect x="515" y="432" width="60" height="26" rx="7" fill="#1a1a24"/>
  <text x="545" y="474" text-anchor="middle" fill="#666" font-size="9">#1A1A24</text>
  <text x="545" y="485" text-anchor="middle" fill="#555" font-size="8">Dark BG</text>

  <rect x="595" y="432" width="60" height="26" rx="7" fill="#ffffff" stroke="#ddd" stroke-width="1"/>
  <text x="625" y="474" text-anchor="middle" fill="#666" font-size="9">#FFFFFF</text>
  <text x="625" y="485" text-anchor="middle" fill="#555" font-size="8">White</text>

  <text x="450" y="540" text-anchor="middle" fill="#333" font-size="10" letter-spacing="1">DashZen — Confidential — April 2026</text>
</svg>
